<svg xmlns="http://www.w3.org/2000/svg" enable-background="new 0 0 160 160" viewBox="0 0 160 160" id="real-estate-law"><path d="M155.428,76.783c-0.341-2.901-1.811-5.472-4.139-7.24L86.657,20.496c-3.919-2.962-9.396-2.962-13.32,0.004L45.184,41.865v-8.57c0-1.933-1.567-3.5-3.5-3.5H22.703c-1.933,0-3.5,1.567-3.5,3.5v28.286L8.711,69.543c-2.329,1.768-3.799,4.339-4.139,7.241c-0.337,2.877,0.481,5.696,2.307,7.943c0.015,0.019,0.029,0.036,0.044,0.054c2.111,2.567,5.156,3.904,8.235,3.903c1.368,0,2.741-0.268,4.044-0.804v50.341c0,1.933,1.567,3.5,3.5,3.5h114.594c1.933,0,3.5-1.567,3.5-3.5V87.872c4.238,1.747,9.232,0.617,12.281-3.093C154.933,82.521,155.768,79.683,155.428,76.783z M26.203,36.795h11.981v10.382l-11.981,9.092V36.795z M26.203,83.019L80,42.187l53.797,40.832v51.702h-14.534v-1.294c0-3.291-2.033-6.112-4.907-7.284c-0.113-4.24-3.59-7.656-7.857-7.656H93.44c-4.267,0-7.743,3.416-7.857,7.656c-2.874,1.172-4.907,3.994-4.907,7.284v1.294H26.203V83.019z M85.677,134.721v-1.294c0-1.581,1.286-2.867,2.867-2.867h22.851c1.581,0,2.868,1.286,2.868,2.867v1.294H85.677z M90.685,125.56c0.346-1.196,1.45-2.073,2.756-2.073h13.059c1.306,0,2.41,0.877,2.756,2.073H90.685z M147.671,80.333c0,0-0.002,0.001-0.002,0.002c-1.256,1.528-3.474,1.789-5.052,0.59l-60.501-45.92c-1.252-0.949-2.981-0.949-4.232,0l-60.5,45.92c-1.567,1.19-3.767,0.94-5.027-0.559c-0.009-0.011-0.018-0.022-0.027-0.034c-0.635-0.771-0.92-1.743-0.804-2.734c0.117-0.993,0.62-1.874,1.418-2.479l64.62-49.039c1.413-1.066,3.462-1.066,4.867-0.004l64.626,49.042c0.798,0.605,1.302,1.486,1.418,2.479C148.591,78.589,148.306,79.561,147.671,80.333z"></path><path d="M79.359,111.817l1.357,2.349c0.678,1.174,1.772,2.013,3.082,2.362c0.435,0.115,0.875,0.173,1.313,0.173c0.881,0,1.75-0.232,2.532-0.686l18.727-10.858c0,0,0-0.001,0.001-0.001c2.413-1.399,3.241-4.505,1.845-6.922l-1.357-2.349c-0.678-1.174-1.771-2.013-3.081-2.361c-1.004-0.268-2.039-0.217-2.997,0.124L90.635,76.091c1.817-1.556,2.337-4.237,1.097-6.381l-1.358-2.35c-0.678-1.173-1.771-2.011-3.08-2.36c-1.307-0.35-2.675-0.167-3.847,0.512L64.722,76.371c-2.416,1.4-3.244,4.505-1.846,6.922l1.357,2.349c0.678,1.174,1.771,2.012,3.08,2.361c0.435,0.116,0.877,0.174,1.316,0.174c0.573,0,1.138-0.108,1.681-0.301l2.106,3.645l-28.737,16.664c-2.802,1.625-3.768,5.223-2.163,8.032c0.005,0.01,0.011,0.019,0.016,0.028c0.789,1.365,2.063,2.341,3.586,2.748c0.506,0.135,1.019,0.201,1.529,0.201c1.026,0,2.038-0.27,2.949-0.798h0l17.567-10.187c0.001-0.001,0.003-0.001,0.004-0.002c0.002-0.001,0.003-0.003,0.005-0.004l11.149-6.465l2.136,3.696C78.639,106.991,78.12,109.672,79.359,111.817z M66.827,102.624l-0.902-1.56l1.713-0.994l0.902,1.56L66.827,102.624z M47.087,114.07L47.087,114.07c-0.281,0.162-0.547,0.125-0.682,0.092c-0.132-0.036-0.376-0.136-0.539-0.407c-0.003-0.005-0.005-0.009-0.008-0.014c-0.249-0.43-0.102-0.983,0.327-1.231l15.414-8.938l0.902,1.56L47.087,114.07z M72.866,99.122l-0.902-1.56l2.953-1.712l0.902,1.561L72.866,99.122z M84.736,102.847L74.682,85.45l11.673-6.77l10.054,17.398l-2.872,1.665L84.736,102.847z M103.887,100.735c0.02,0.034,0.009,0.077-0.024,0.096l-18.816,10.834l-1.334-2.444l18.817-10.834L103.887,100.735z M68.563,83.141l-1.333-2.444l18.817-10.834l1.357,2.35c0.02,0.034,0.009,0.077-0.025,0.096h0.001l-0.924,0.532c-0.162,0.054-0.321,0.122-0.471,0.209L70.908,81.79L68.563,83.141z"></path></svg>